<svg width="222" height="222" viewBox="0 0 222 222" fill="none" xmlns="http://www.w3.org/2000/svg">
<g filter="url(#filter0_d_835_9)">
<circle cx="111" cy="107" r="77" fill="white"/>
</g>
<g clip-path="url(#clip0_835_9)">
<path d="M88.784 125.814C87.846 125.814 86.9443 126.048 86.1443 126.487C81.9302 121.085 79.6172 114.375 79.6172 107.5C79.6172 90.4709 93.4709 76.6172 110.5 76.6172C112.57 76.6172 114.639 76.8232 116.65 77.2296C117.358 77.3727 118.049 76.9147 118.192 76.2062C118.335 75.4977 117.877 74.8076 117.169 74.664C114.988 74.2234 112.744 74 110.5 74C101.552 74 93.1392 77.4846 86.8119 83.8119C80.4846 90.1392 77 98.552 77 107.5C77 115.027 79.5558 122.372 84.209 128.261C83.6099 129.156 83.2879 130.208 83.2879 131.31C83.2879 132.778 83.8599 134.158 84.8981 135.196C85.9358 136.234 87.3159 136.806 88.784 136.806C90.2521 136.806 91.6322 136.234 92.6704 135.196C93.7086 134.158 94.2801 132.777 94.2801 131.309C94.2801 129.842 93.7086 128.461 92.6704 127.423C91.6322 126.385 90.2521 125.814 88.784 125.814ZM90.8195 133.345C90.2761 133.889 89.5528 134.189 88.784 134.189C88.0152 134.189 87.2924 133.889 86.7485 133.345C86.2046 132.801 85.9051 132.079 85.9051 131.31C85.9051 130.54 86.2046 129.818 86.7485 129.274C87.2919 128.73 88.0152 128.431 88.784 128.431C89.5528 128.431 90.2756 128.73 90.8195 129.274C91.3634 129.818 91.6629 130.54 91.6629 131.31C91.6629 132.079 91.3634 132.801 90.8195 133.345Z" fill="#FE8544"/>
<path d="M136.79 86.7373C138.213 84.6032 137.984 81.6855 136.103 79.8038C135.064 78.7662 133.684 78.1942 132.216 78.1942C130.748 78.1942 129.368 78.7662 128.33 79.8038C127.292 80.842 126.72 82.2222 126.72 83.6903C126.72 85.1583 127.292 86.5385 128.33 87.5767C129.368 88.6149 130.748 89.1864 132.216 89.1864C133.154 89.1864 134.056 88.9522 134.856 88.5126C139.07 93.9152 141.383 100.625 141.383 107.5C141.383 124.529 127.529 138.383 110.5 138.383C108.45 138.383 106.401 138.181 104.409 137.782C103.7 137.641 103.01 138.1 102.868 138.809C102.727 139.518 103.186 140.207 103.895 140.349C106.056 140.781 108.278 141 110.5 141C119.448 141 127.861 137.515 134.188 131.188C140.516 124.861 144 116.448 144 107.5C144 99.9725 141.444 92.6265 136.79 86.7373ZM130.181 85.7263C129.637 85.1824 129.337 84.4596 129.337 83.6903C129.337 82.9215 129.637 82.1987 130.181 81.6548C130.724 81.1109 131.447 80.8114 132.216 80.8114C132.985 80.8114 133.708 81.1109 134.252 81.6548C135.374 82.7773 135.374 84.6037 134.252 85.7263C133.708 86.2696 132.985 86.5692 132.216 86.5692C131.447 86.5692 130.724 86.2696 130.181 85.7263Z" fill="#FE8544"/>
<path d="M105.1 130.008C105.1 130.731 105.686 131.316 106.409 131.316H114.591C115.314 131.316 115.9 130.731 115.9 130.008V127.471C117.62 127.008 119.265 126.326 120.811 125.435L122.602 127.227C122.847 127.472 123.18 127.61 123.528 127.61C123.874 127.61 124.208 127.472 124.453 127.226L130.236 121.439C130.747 120.927 130.747 120.099 130.236 119.588L128.447 117.799C129.338 116.253 130.02 114.608 130.483 112.888H133.01C133.733 112.888 134.319 112.302 134.319 111.579V103.397C134.319 102.674 133.733 102.088 133.01 102.088H130.482C130.019 100.368 129.338 98.7232 128.447 97.1774L130.227 95.3981C130.472 95.1527 130.61 94.8194 130.61 94.4723C130.609 94.1253 130.471 93.792 130.226 93.5466L124.438 87.7632C123.927 87.2526 123.099 87.2526 122.588 87.7637L120.811 89.5411C119.265 88.6506 117.62 87.9687 115.9 87.5056V84.9922C115.9 84.2694 115.314 83.6836 114.591 83.6836H106.409C105.686 83.6836 105.1 84.2694 105.1 84.9922V87.5061C103.38 87.9687 101.735 88.6506 100.189 89.5411L98.412 87.7637C97.9013 87.2531 97.0727 87.2526 96.5615 87.7632L90.7741 93.5471C90.5282 93.7925 90.3902 94.1253 90.3902 94.4723C90.3902 94.8194 90.5282 95.1527 90.7736 95.3981L92.5529 97.1774C91.6625 98.7232 90.9806 100.368 90.5175 102.088H87.9948C87.272 102.088 86.6862 102.674 86.6862 103.396L86.6816 111.579C86.6811 111.926 86.8191 112.259 87.0645 112.504C87.3099 112.75 87.6426 112.888 87.9902 112.888H90.5175C90.9806 114.608 91.6625 116.253 92.5529 117.799L90.7638 119.588C90.2532 120.099 90.2527 120.927 90.7638 121.439L96.5472 127.226C96.7926 127.471 97.1253 127.61 97.4724 127.61H97.4729C97.82 127.61 98.1528 127.472 98.3982 127.227L100.189 125.435C101.735 126.326 103.38 127.008 105.1 127.471V130.008ZM100.702 122.683C100.184 122.348 99.5028 122.421 99.0663 122.857L97.4729 124.45L93.5395 120.514L95.1313 118.922C95.5673 118.486 95.6399 117.804 95.3051 117.286C94.1186 115.45 93.2844 113.438 92.8264 111.304C92.6966 110.701 92.1639 110.271 91.547 110.271H89.2993L89.3024 104.705H91.547C92.1639 104.705 92.6966 104.275 92.8264 103.672C93.2844 101.539 94.1186 99.5263 95.3051 97.6901C95.6399 97.1723 95.5673 96.4909 95.1313 96.0549L93.5497 94.4728L97.4862 90.5394L99.0663 92.1199C99.5028 92.556 100.184 92.628 100.702 92.2937C102.538 91.1073 104.55 90.2731 106.684 89.8151C107.286 89.6852 107.717 89.1521 107.717 88.5356V86.3008H113.282V88.5351C113.282 89.1521 113.713 89.6852 114.316 89.8146C116.449 90.2731 118.462 91.1068 120.298 92.2932C120.815 92.628 121.497 92.556 121.933 92.1194L123.513 90.5394L127.45 94.4728L125.868 96.0544C125.432 96.4909 125.36 97.1723 125.695 97.6901C126.881 99.5263 127.715 101.539 128.173 103.672C128.303 104.275 128.836 104.705 129.453 104.705H131.701V110.271H129.453C128.836 110.271 128.303 110.701 128.173 111.304C127.715 113.437 126.881 115.45 125.695 117.286C125.36 117.804 125.432 118.486 125.868 118.922L127.46 120.513L123.527 124.45L121.933 122.857C121.497 122.421 120.815 122.348 120.298 122.683C118.462 123.87 116.449 124.703 114.316 125.162C113.713 125.292 113.282 125.824 113.282 126.441V128.699H107.717V126.441C107.717 125.825 107.286 125.292 106.684 125.162C104.551 124.704 102.538 123.87 100.702 122.683Z" fill="#FE8544"/>
<path d="M121.313 107.5C121.313 101.538 116.462 96.6872 110.5 96.6872C104.537 96.6872 99.687 101.538 99.687 107.5C99.687 113.462 104.537 118.313 110.5 118.313C116.462 118.313 121.313 113.462 121.313 107.5ZM102.304 107.5C102.304 102.981 105.981 99.3044 110.5 99.3044C115.019 99.3044 118.695 102.981 118.695 107.5C118.695 112.019 115.019 115.696 110.5 115.696C105.981 115.696 102.304 112.019 102.304 107.5Z" fill="#FE8544"/>
<path d="M122.549 78.9491C122.894 78.9491 123.231 78.8091 123.475 78.5658C123.718 78.3209 123.858 77.9835 123.858 77.639C123.858 77.2965 123.718 76.9586 123.475 76.7138C123.231 76.4705 122.894 76.3304 122.549 76.3304C122.204 76.3304 121.868 76.4705 121.625 76.7138C121.381 76.9586 121.241 77.295 121.241 77.639C121.241 77.9846 121.381 78.3209 121.625 78.5658C121.868 78.8091 122.204 78.9491 122.549 78.9491Z" fill="#FE8544"/>
<path d="M98.5078 136.074C98.1638 136.074 97.8259 136.214 97.5826 136.458C97.3393 136.701 97.1992 137.039 97.1992 137.383C97.1992 137.729 97.3393 138.065 97.5826 138.308C97.8259 138.552 98.1638 138.692 98.5078 138.692C98.8518 138.692 99.1897 138.552 99.433 138.308C99.6763 138.065 99.8164 137.727 99.8164 137.383C99.8164 137.039 99.6763 136.701 99.433 136.458C99.1897 136.214 98.8518 136.074 98.5078 136.074Z" fill="#FE8544"/>
</g>
<defs>
<filter id="filter0_d_835_9" x="0" y="0" width="222" height="222" filterUnits="userSpaceOnUse" color-interpolation-filters="sRGB">
<feFlood flood-opacity="0" result="BackgroundImageFix"/>
<feColorMatrix in="SourceAlpha" type="matrix" values="0 0 0 0 0 0 0 0 0 0 0 0 0 0 0 0 0 0 127 0" result="hardAlpha"/>
<feOffset dy="4"/>
<feGaussianBlur stdDeviation="17"/>
<feColorMatrix type="matrix" values="0 0 0 0 0 0 0 0 0 0 0 0 0 0 0 0 0 0 0.15 0"/>
<feBlend mode="normal" in2="BackgroundImageFix" result="effect1_dropShadow_835_9"/>
<feBlend mode="normal" in="SourceGraphic" in2="effect1_dropShadow_835_9" result="shape"/>
</filter>
<clipPath id="clip0_835_9">
<rect width="67" height="67" fill="white" transform="translate(77 74)"/>
</clipPath>
</defs>
</svg>
