<svg width="222" height="222" viewBox="0 0 222 222" fill="none" xmlns="http://www.w3.org/2000/svg">
<g filter="url(#filter0_d_1_79)">
<circle cx="111" cy="107" r="77" fill="white"/>
</g>
<path d="M140.305 81.0216C141.435 81.0216 142.355 80.1518 142.355 79.0825V76.9391C142.355 75.8698 141.435 75 140.305 75H81.0507C79.9199 75 79 75.8698 79 76.9391V79.0825C79 80.1518 79.9199 81.0216 81.0507 81.0216H81.1917V86.497C81.1917 87.0152 81.6359 87.4353 82.184 87.4353C82.7321 87.4353 83.1762 87.0152 83.1762 86.497V81.0216H138.179V118.523H83.1764V90.2501C83.1764 89.7319 82.7322 89.3118 82.1841 89.3118C81.636 89.3118 81.1918 89.7319 81.1918 90.2501V118.523H81.0508C79.92 118.523 79.0001 119.393 79.0001 120.463V122.606C79.0001 123.675 79.92 124.545 81.0508 124.545H87.4507L83.8218 136.535C83.6398 137.136 83.7638 137.768 84.162 138.267C84.5603 138.766 85.1679 139.053 85.8294 139.053H90.125C91.0522 139.053 91.8778 138.464 92.1327 137.622L92.954 134.908H106.398V137.078C106.398 138.167 107.334 139.053 108.486 139.053H112.869C114.021 139.053 114.957 138.167 114.957 137.078V134.908H128.401L129.222 137.621C129.477 138.464 130.303 139.053 131.23 139.053H135.526C136.187 139.053 136.795 138.766 137.193 138.267C137.591 137.768 137.715 137.136 137.533 136.535L133.904 124.545H140.304C141.435 124.545 142.355 123.675 142.355 122.606V120.463C142.355 119.393 141.435 118.523 140.304 118.523H140.163V81.0216H140.305ZM90.125 137.176H85.8296C85.8167 137.176 85.7778 137.176 85.7467 137.137C85.7158 137.098 85.7264 137.063 85.7299 137.051L89.5077 124.569H94.0191L90.2248 137.105C90.2121 137.147 90.1711 137.176 90.125 137.176ZM112.973 137.078C112.973 137.132 112.926 137.176 112.869 137.176H108.486C108.429 137.176 108.382 137.132 108.382 137.078V134.908H112.973V137.078ZM93.522 133.031L94.2087 130.763H127.147L127.833 133.031H93.522ZM112.973 124.569V128.886H108.382V124.569H112.973ZM135.609 137.137C135.577 137.176 135.539 137.176 135.526 137.176H131.23C131.184 137.176 131.143 137.147 131.131 137.105L127.336 124.569H131.848L135.625 137.051C135.629 137.063 135.64 137.098 135.609 137.137ZM126.579 128.886H114.958V124.545H125.265L126.579 128.886ZM140.371 120.463V122.606C140.371 122.64 140.341 122.668 140.305 122.668H101.986C101.437 122.668 100.993 123.089 100.993 123.607C100.993 124.125 101.437 124.545 101.986 124.545H106.398V128.886H94.7766L96.0905 124.545H98.0163C98.5644 124.545 99.0086 124.125 99.0086 123.607C99.0086 123.089 98.5644 122.668 98.0163 122.668H81.0507C81.0143 122.668 80.9845 122.64 80.9845 122.606V120.463C80.9845 120.428 81.0143 120.4 81.0507 120.4H140.304C140.341 120.4 140.371 120.428 140.371 120.463ZM81.0507 79.145C81.0143 79.145 80.9845 79.117 80.9845 79.0825V76.9391C80.9845 76.9046 81.0143 76.8765 81.0507 76.8765H140.304C140.341 76.8765 140.371 76.9046 140.371 76.9391V79.0825C140.371 79.117 140.341 79.145 140.304 79.145H81.0507Z" fill="#FE8544"/>
<path d="M92.1509 113.244C92.1509 114.904 93.5792 116.255 95.3349 116.255C97.0905 116.255 98.519 114.904 98.519 113.244C98.519 111.584 97.0906 110.233 95.335 110.233C93.5793 110.233 92.1509 111.584 92.1509 113.244ZM95.3349 112.11C95.9962 112.11 96.5343 112.619 96.5343 113.244C96.5343 113.87 95.9962 114.378 95.3349 114.378C94.6735 114.378 94.1354 113.87 94.1354 113.244C94.1354 112.619 94.6735 112.11 95.3349 112.11Z" fill="#FE8544"/>
<path d="M126.02 89.3849C127.776 89.3849 129.204 88.0343 129.204 86.3741C129.204 84.7141 127.776 83.3635 126.02 83.3635C124.265 83.3635 122.836 84.714 122.836 86.3741C122.836 88.0343 124.265 89.3849 126.02 89.3849ZM126.02 85.24C126.682 85.24 127.22 85.7488 127.22 86.3741C127.22 86.9996 126.682 87.5084 126.02 87.5084C125.359 87.5084 124.821 86.9996 124.821 86.3741C124.821 85.7488 125.359 85.24 126.02 85.24Z" fill="#FE8544"/>
<path d="M94.3428 107.026C94.3428 107.544 94.7869 107.964 95.3351 107.964C95.8832 107.964 96.3273 107.544 96.3273 107.026V104.954C96.3273 104.435 95.8832 104.015 95.3351 104.015C94.7869 104.015 94.3428 104.435 94.3428 104.954V107.026Z" fill="#FE8544"/>
<path d="M95.3351 101.747C95.8832 101.747 96.3273 101.327 96.3273 100.809V98.7361C96.3273 98.2179 95.8832 97.7979 95.3351 97.7979C94.7869 97.7979 94.3428 98.2179 94.3428 98.7361V100.809C94.3428 101.327 94.787 101.747 95.3351 101.747Z" fill="#FE8544"/>
<path d="M92.4415 95.2544C92.6353 95.4376 92.8893 95.5293 93.1432 95.5293C93.3971 95.5293 93.6511 95.4377 93.8449 95.2544L95.3351 93.8454L96.8252 95.2544C97.019 95.4377 97.2729 95.5293 97.5269 95.5293C97.7808 95.5293 98.0348 95.4377 98.2287 95.2544C98.6162 94.888 98.6162 94.2939 98.2287 93.9276L96.7385 92.5186L98.2287 91.1095C98.6162 90.7431 98.6162 90.149 98.2287 89.7827C97.841 89.4163 97.2128 89.4163 96.8253 89.7827L95.3352 91.1917L93.8451 89.7827C93.4576 89.4163 92.8294 89.4161 92.4417 89.7827C92.0542 90.1491 92.0542 90.7432 92.4417 91.1095L93.9319 92.5186L92.4417 93.9276C92.054 94.294 92.054 94.8881 92.4415 95.2544Z" fill="#FE8544"/>
<path d="M111.379 103.254C110.992 102.888 110.363 102.888 109.976 103.254L108.486 104.663L106.996 103.254C106.608 102.888 105.98 102.888 105.592 103.254C105.205 103.621 105.205 104.215 105.592 104.581L107.083 105.99L105.592 107.399C105.205 107.766 105.205 108.36 105.592 108.726C105.786 108.91 106.04 109.001 106.294 109.001C106.548 109.001 106.802 108.91 106.996 108.726L108.486 107.317L109.976 108.726C110.17 108.91 110.424 109.001 110.678 109.001C110.932 109.001 111.186 108.91 111.38 108.726C111.767 108.36 111.767 107.766 111.38 107.399L109.889 105.99L111.38 104.581C111.767 104.215 111.767 103.621 111.379 103.254Z" fill="#FE8544"/>
<path d="M128.914 103.254C128.526 102.888 127.898 102.888 127.51 103.254L126.02 104.663L124.53 103.254C124.143 102.888 123.514 102.888 123.127 103.254C122.739 103.621 122.739 104.215 123.127 104.581L124.617 105.99L123.127 107.399C122.739 107.766 122.739 108.36 123.127 108.726C123.321 108.91 123.575 109.001 123.829 109.001C124.082 109.001 124.336 108.91 124.53 108.726L126.02 107.317L127.51 108.726C127.704 108.91 127.958 109.001 128.212 109.001C128.466 109.001 128.72 108.91 128.914 108.726C129.301 108.36 129.301 107.766 128.914 107.399L127.424 105.99L128.914 104.581C129.301 104.215 129.301 103.621 128.914 103.254Z" fill="#FE8544"/>
<path d="M99.7186 97.7979C99.1705 97.7979 98.7263 98.218 98.7263 98.7362C98.7263 99.2543 99.1705 99.6744 99.7186 99.6744H126.02C126.568 99.6744 127.012 99.2543 127.012 98.7362V94.7342L127.51 95.2049C127.704 95.3881 127.958 95.4798 128.212 95.4798C128.466 95.4798 128.72 95.3882 128.914 95.2049C129.301 94.8385 129.301 94.2444 128.914 93.8781L126.722 91.8056C126.334 91.4392 125.706 91.4392 125.319 91.8056L123.127 93.8779C122.739 94.2444 122.739 94.8385 123.127 95.2048C123.514 95.5712 124.143 95.5712 124.53 95.2048L125.028 94.734V97.7977H99.7186V97.7979Z" fill="#FE8544"/>
<defs>
<filter id="filter0_d_1_79" x="0" y="0" width="222" height="222" filterUnits="userSpaceOnUse" color-interpolation-filters="sRGB">
<feFlood flood-opacity="0" result="BackgroundImageFix"/>
<feColorMatrix in="SourceAlpha" type="matrix" values="0 0 0 0 0 0 0 0 0 0 0 0 0 0 0 0 0 0 127 0" result="hardAlpha"/>
<feOffset dy="4"/>
<feGaussianBlur stdDeviation="17"/>
<feColorMatrix type="matrix" values="0 0 0 0 0 0 0 0 0 0 0 0 0 0 0 0 0 0 0.15 0"/>
<feBlend mode="normal" in2="BackgroundImageFix" result="effect1_dropShadow_1_79"/>
<feBlend mode="normal" in="SourceGraphic" in2="effect1_dropShadow_1_79" result="shape"/>
</filter>
</defs>
</svg>
