<svg width="223" height="222" viewBox="0 0 223 222" fill="none" xmlns="http://www.w3.org/2000/svg">
<g filter="url(#filter0_d_1_99)">
<ellipse cx="111.5" cy="107" rx="77.5" ry="77" fill="white"/>
</g>
<path d="M99.9168 124.284C99.8995 124.2 99.8743 124.118 99.8411 124.038C99.8079 123.96 99.7667 123.884 99.7189 123.813C99.6711 123.741 99.6153 123.674 99.5542 123.614C99.4931 123.554 99.4254 123.499 99.3523 123.452C99.2806 123.405 99.2036 123.364 99.1226 123.331C99.0429 123.299 98.9592 123.273 98.8742 123.257C98.7029 123.223 98.5263 123.223 98.3563 123.257C98.2713 123.273 98.1876 123.299 98.1066 123.331C98.0269 123.364 97.9498 123.405 97.8781 123.452C97.8051 123.499 97.7373 123.554 97.6762 123.614C97.6152 123.674 97.5594 123.741 97.5116 123.813C97.4624 123.884 97.4226 123.96 97.3894 124.038C97.3562 124.118 97.3296 124.2 97.3137 124.284C97.2964 124.368 97.2871 124.454 97.2871 124.539C97.2871 124.624 97.2964 124.711 97.3137 124.794C97.3296 124.878 97.3562 124.961 97.3894 125.039C97.4226 125.119 97.4624 125.195 97.5116 125.266C97.5594 125.338 97.6152 125.404 97.6762 125.464C97.7373 125.525 97.8051 125.58 97.8781 125.627C97.9498 125.674 98.0269 125.715 98.1066 125.747C98.1876 125.78 98.2713 125.806 98.3563 125.822C98.4413 125.839 98.5289 125.848 98.6152 125.848C98.7016 125.848 98.7892 125.839 98.8742 125.822C98.9592 125.806 99.0429 125.78 99.1226 125.747C99.2036 125.715 99.2806 125.674 99.3523 125.627C99.4254 125.58 99.4931 125.525 99.5542 125.464C99.6153 125.404 99.6711 125.338 99.7189 125.266C99.7667 125.195 99.8079 125.119 99.8411 125.039C99.8743 124.961 99.8995 124.878 99.9168 124.794C99.9341 124.711 99.9434 124.624 99.9434 124.539C99.9434 124.454 99.9341 124.368 99.9168 124.284Z" fill="#FE8544"/>
<path d="M138.093 124.687C138.088 124.674 138.082 124.661 138.077 124.648C136.854 121.83 133.987 120.788 130.595 121.93L121.342 124.451C120.807 122.855 119.473 121.497 117.586 120.807C117.574 120.803 117.562 120.798 117.551 120.795L107.38 117.393C106.533 116.315 103.881 113.556 98.9165 113.556C95.4467 113.556 92.3773 115.902 90.6213 118.458H78.3281C77.5946 118.458 77 119.044 77 119.766V136.265C77 136.988 77.5946 137.573 78.3281 137.573H86.2248C86.9583 137.573 87.5529 136.988 87.5529 136.265V135.135H91.2561C91.9896 135.135 92.5842 134.549 92.5842 133.826V133.45C94.743 133.635 95.453 134.039 97.4356 135.165C98.9603 136.032 101.265 137.341 105.415 139.179C105.434 139.188 105.453 139.196 105.473 139.203C106.269 139.512 107.826 139.997 109.746 139.997C111.082 139.997 112.594 139.762 114.146 139.069L134.598 131.854C134.634 131.841 134.67 131.826 134.705 131.811C136.66 130.924 139.573 128.427 138.093 124.687ZM84.8966 134.956H79.6563V121.075H84.8966V134.956ZM89.928 132.518H87.5529V121.075H89.928V132.518ZM133.644 129.41L113.201 136.622C113.183 136.628 113.159 136.638 113.141 136.645C113.123 136.652 113.105 136.66 113.088 136.667C110.241 137.957 107.534 137.185 106.474 136.779C102.465 135.001 100.326 133.786 98.7625 132.898C96.5892 131.663 95.542 131.068 92.5842 130.827V120.287C93.8431 118.254 96.2845 116.173 98.9166 116.173C103.43 116.173 105.343 119.066 105.418 119.183C105.58 119.443 105.83 119.638 106.123 119.737L116.678 123.266C118.364 123.89 119.255 125.312 118.845 126.731C118.656 127.386 118.22 127.929 117.616 128.261C117.017 128.589 116.325 128.67 115.666 128.491L103.767 124.775C103.067 124.557 102.321 124.938 102.099 125.627C101.878 126.316 102.265 127.052 102.964 127.27L114.884 130.992C114.897 130.996 114.909 131 114.922 131.003C115.398 131.137 115.882 131.203 116.364 131.203C117.246 131.203 118.117 130.981 118.909 130.547C120.132 129.875 121.017 128.774 121.4 127.446C121.431 127.34 121.458 127.234 121.481 127.128L131.453 124.407C132.893 123.922 134.784 123.747 135.626 125.657C136.497 127.9 134.233 129.134 133.644 129.41Z" fill="#FE8544"/>
<path d="M124.688 90.2136C124.67 90.1299 124.645 90.0474 124.611 89.9676C124.577 89.8891 124.538 89.8132 124.488 89.7425C124.441 89.6705 124.385 89.6038 124.324 89.5436C124.263 89.4834 124.195 89.4284 124.122 89.3813C124.05 89.3342 123.973 89.2937 123.893 89.2609C123.812 89.2282 123.729 89.2021 123.645 89.1864C123.474 89.1523 123.297 89.1523 123.126 89.1864C123.041 89.2021 122.957 89.2282 122.877 89.2609C122.796 89.2937 122.719 89.3342 122.648 89.3813C122.575 89.4284 122.507 89.4834 122.446 89.5436C122.385 89.6038 122.329 89.6705 122.281 89.7425C122.233 89.8132 122.192 89.8891 122.159 89.9676C122.126 90.0474 122.099 90.1299 122.083 90.2136C122.066 90.2974 122.057 90.3837 122.057 90.4688C122.057 90.5538 122.066 90.6402 122.083 90.724C122.099 90.8077 122.126 90.8901 122.159 90.9687C122.192 91.0485 122.233 91.1244 122.281 91.195C122.329 91.267 122.385 91.3338 122.446 91.394C122.507 91.4542 122.575 91.5091 122.648 91.5562C122.719 91.6033 122.796 91.6439 122.877 91.6766C122.957 91.7093 123.041 91.7342 123.126 91.7512C123.211 91.7682 123.298 91.7774 123.385 91.7774C123.471 91.7774 123.559 91.7682 123.645 91.7512C123.729 91.7342 123.812 91.7093 123.893 91.6766C123.973 91.6439 124.05 91.6033 124.122 91.5562C124.195 91.5091 124.263 91.4542 124.324 91.394C124.385 91.3338 124.441 91.267 124.488 91.195C124.538 91.1244 124.577 91.0485 124.611 90.9687C124.645 90.8901 124.67 90.8077 124.688 90.724C124.705 90.6402 124.713 90.5538 124.713 90.4688C124.713 90.3837 124.705 90.2974 124.688 90.2136Z" fill="#FE8544"/>
<path d="M143.672 77.4351H135.775C135.042 77.4351 134.447 78.0209 134.447 78.7437V79.8735H130.744C130.01 79.8735 129.416 80.4594 129.416 81.1821V81.5587C127.257 81.373 126.547 80.9697 124.564 79.8433C123.04 78.977 120.735 77.6678 116.585 75.8293C116.566 75.8207 116.547 75.8127 116.527 75.8051C115.176 75.2814 111.636 74.251 107.854 75.9395L102.51 77.8249L98.005 73.3864C97.4864 72.8754 96.6454 72.8754 96.1268 73.3864L81.3371 87.9585C80.8587 88.43 80.7669 89.2475 81.3371 89.8093L106.61 114.71C107.014 115.109 107.961 115.229 108.488 114.71L121.99 101.406C122.341 101.436 122.706 101.452 123.083 101.452C126.553 101.452 129.622 99.1071 131.378 96.5509H143.672C144.405 96.5509 145 95.965 145 95.2423V78.7437C145 78.0209 144.405 77.4351 143.672 77.4351ZM97.0658 76.1624L100.093 79.1449C99.193 79.6932 98.1527 79.9866 97.0658 79.9866C95.9787 79.9866 94.9385 79.6933 94.0387 79.1449L97.0658 76.1624ZM87.1816 91.8665L84.1546 88.8838L87.1816 85.9013C87.7381 86.7879 88.0359 87.8129 88.0359 88.8838C88.0359 89.9548 87.7382 90.9798 87.1816 91.8665ZM107.549 111.934L104.522 108.952C106.37 107.828 108.727 107.828 110.575 108.952L107.549 111.934ZM112.489 107.067C109.554 104.969 105.544 104.969 102.609 107.067L89.095 93.7517C90.1322 92.3463 90.6921 90.658 90.6921 88.8838C90.6921 87.1095 90.1323 85.4214 89.095 84.016L92.1254 81.0303C93.5518 82.0522 95.2651 82.6039 97.0659 82.6039C98.8667 82.6039 100.58 82.0522 102.006 81.0303L104.879 83.8607C104.259 83.9508 103.655 84.1521 103.091 84.4616C102.139 84.9842 101.392 85.7669 100.927 86.7138C99.4289 86.9872 98.042 87.7018 96.954 88.7737C94.0022 91.6821 94.0022 96.4144 96.9541 99.3229C98.4299 100.777 100.369 101.504 102.307 101.504C104.246 101.504 106.185 100.777 107.661 99.3229C108.621 98.3768 109.294 97.214 109.631 95.9467L114.115 97.4462C113.61 99.7504 114.127 102.174 115.522 104.078L112.489 107.067ZM104.414 94.2017C104.426 94.2059 104.437 94.2101 104.449 94.214L107.105 95.1022C106.904 95.994 106.451 96.8139 105.783 97.4723C103.866 99.3601 100.748 99.3603 98.8325 97.4723C96.9162 95.5844 96.9162 92.5124 98.8325 90.6244C99.2946 90.1688 99.8401 89.8127 100.434 89.5713C100.68 91.5815 102.149 93.3734 104.414 94.2017ZM117.436 102.193C116.923 101.37 116.633 100.43 116.587 99.4714C117.223 99.9246 118.001 100.369 118.929 100.721L117.436 102.193ZM129.415 94.7206C128.157 96.7539 125.715 98.8349 123.083 98.8349C122.591 98.8349 122.129 98.8004 121.698 98.7389C121.696 98.7386 121.694 98.7383 121.693 98.7381C118.824 98.3276 117.281 96.7214 116.773 96.0854C116.746 96.0462 116.63 95.8974 116.613 95.8727C116.459 95.6002 116.205 95.3811 115.881 95.2729L105.322 91.7417C103.637 91.1185 102.746 89.6967 103.154 88.2788C103.154 88.2778 103.155 88.2769 103.155 88.276C103.155 88.275 103.156 88.2738 103.156 88.2727C103.346 87.6197 103.781 87.0781 104.384 86.7474C104.982 86.4188 105.674 86.3373 106.334 86.5175L118.233 90.2327C118.932 90.4514 119.679 90.0696 119.9 89.3806C120.122 88.6916 119.735 87.9562 119.036 87.7378L109.572 84.783L109.489 84.7016C109.489 84.7008 109.488 84.6999 109.487 84.6991L104.587 79.8717L108.799 78.3859C108.813 78.3808 108.83 78.3744 108.844 78.3688C108.848 78.3673 108.855 78.3647 108.858 78.3633C108.876 78.3561 108.894 78.3485 108.912 78.3405C111.759 77.0513 114.465 77.823 115.526 78.2294C119.534 80.0066 121.674 81.2222 123.237 82.1103C125.411 83.3452 126.458 83.9402 129.415 84.1809V94.7206ZM134.447 93.9334H132.072V82.4907H134.447V93.9334ZM142.344 93.9334H137.103V80.0523H142.344V93.9334Z" fill="#FE8544"/>
<defs>
<filter id="filter0_d_1_99" x="0" y="0" width="223" height="222" filterUnits="userSpaceOnUse" color-interpolation-filters="sRGB">
<feFlood flood-opacity="0" result="BackgroundImageFix"/>
<feColorMatrix in="SourceAlpha" type="matrix" values="0 0 0 0 0 0 0 0 0 0 0 0 0 0 0 0 0 0 127 0" result="hardAlpha"/>
<feOffset dy="4"/>
<feGaussianBlur stdDeviation="17"/>
<feColorMatrix type="matrix" values="0 0 0 0 0 0 0 0 0 0 0 0 0 0 0 0 0 0 0.15 0"/>
<feBlend mode="normal" in2="BackgroundImageFix" result="effect1_dropShadow_1_99"/>
<feBlend mode="normal" in="SourceGraphic" in2="effect1_dropShadow_1_99" result="shape"/>
</filter>
</defs>
</svg>
