<svg width="222" height="222" viewBox="0 0 222 222" fill="none" xmlns="http://www.w3.org/2000/svg">
<g filter="url(#filter0_d_1_114)">
<circle cx="111" cy="107" r="77" fill="white"/>
</g>
<path d="M127.512 104.098C128.957 104.098 130.129 102.926 130.129 101.48C130.129 100.035 128.957 98.8633 127.512 98.8633C126.066 98.8633 124.895 100.035 124.895 101.48C124.895 102.926 126.066 104.098 127.512 104.098Z" fill="#FE8544"/>
<path d="M133.531 79.2344H130.129V76.6172C130.129 75.1717 128.957 74 127.512 74C126.066 74 124.895 75.1717 124.895 76.6172V79.2344H112.986V76.6172C112.986 75.1717 111.815 74 110.369 74C108.924 74 107.752 75.1717 107.752 76.6172V79.2344H95.9746V76.6172C95.9746 75.1717 94.8029 74 93.3574 74C91.9119 74 90.7402 75.1717 90.7402 76.6172V79.2344H87.4688C81.6963 79.2344 77 83.9307 77 89.7031V130.531C77 136.304 81.6963 141 87.4688 141H107.49C108.936 141 110.107 139.828 110.107 138.383C110.107 136.937 108.936 135.766 107.49 135.766H87.4688C84.5825 135.766 82.2344 133.417 82.2344 130.531V89.7031C82.2344 86.8169 84.5825 84.4688 87.4688 84.4688H90.7402V87.0859C90.7402 88.5314 91.9119 89.7031 93.3574 89.7031C94.8029 89.7031 95.9746 88.5314 95.9746 87.0859V84.4688H107.752V87.0859C107.752 88.5314 108.924 89.7031 110.369 89.7031C111.815 89.7031 112.986 88.5314 112.986 87.0859V84.4688H124.895V87.0859C124.895 88.5314 126.066 89.7031 127.512 89.7031C128.957 89.7031 130.129 88.5314 130.129 87.0859V84.4688H133.531C136.417 84.4688 138.766 86.8169 138.766 89.7031V104.621C138.766 106.067 139.937 107.238 141.383 107.238C142.828 107.238 144 106.067 144 104.621V89.7031C144 83.9307 139.304 79.2344 133.531 79.2344Z" fill="#FE8544"/>
<path d="M128.166 109.332C119.435 109.332 112.332 116.435 112.332 125.166C112.332 133.897 119.435 141 128.166 141C136.897 141 144 133.897 144 125.166C144 116.435 136.897 109.332 128.166 109.332ZM128.166 135.766C122.321 135.766 117.566 131.011 117.566 125.166C117.566 119.321 122.321 114.566 128.166 114.566C134.011 114.566 138.766 119.321 138.766 125.166C138.766 131.011 134.011 135.766 128.166 135.766Z" fill="#FE8544"/>
<path d="M131.961 122.549H130.783V119.801C130.783 118.355 129.611 117.184 128.166 117.184C126.721 117.184 125.549 118.355 125.549 119.801V125.166C125.549 126.611 126.721 127.783 128.166 127.783H131.961C133.406 127.783 134.578 126.611 134.578 125.166C134.578 123.721 133.406 122.549 131.961 122.549Z" fill="#FE8544"/>
<path d="M116.127 104.098C117.572 104.098 118.744 102.926 118.744 101.48C118.744 100.035 117.572 98.8633 116.127 98.8633C114.682 98.8633 113.51 100.035 113.51 101.48C113.51 102.926 114.682 104.098 116.127 104.098Z" fill="#FE8544"/>
<path d="M104.742 115.482C106.188 115.482 107.359 114.311 107.359 112.865C107.359 111.42 106.188 110.248 104.742 110.248C103.297 110.248 102.125 111.42 102.125 112.865C102.125 114.311 103.297 115.482 104.742 115.482Z" fill="#FE8544"/>
<path d="M93.3574 104.098C94.8029 104.098 95.9746 102.926 95.9746 101.48C95.9746 100.035 94.8029 98.8633 93.3574 98.8633C91.912 98.8633 90.7402 100.035 90.7402 101.48C90.7402 102.926 91.912 104.098 93.3574 104.098Z" fill="#FE8544"/>
<path d="M93.3574 115.482C94.8029 115.482 95.9746 114.311 95.9746 112.865C95.9746 111.42 94.8029 110.248 93.3574 110.248C91.912 110.248 90.7402 111.42 90.7402 112.865C90.7402 114.311 91.912 115.482 93.3574 115.482Z" fill="#FE8544"/>
<path d="M93.3574 126.867C94.8029 126.867 95.9746 125.695 95.9746 124.25C95.9746 122.805 94.8029 121.633 93.3574 121.633C91.912 121.633 90.7402 122.805 90.7402 124.25C90.7402 125.695 91.912 126.867 93.3574 126.867Z" fill="#FE8544"/>
<path d="M104.742 126.867C106.188 126.867 107.359 125.695 107.359 124.25C107.359 122.805 106.188 121.633 104.742 121.633C103.297 121.633 102.125 122.805 102.125 124.25C102.125 125.695 103.297 126.867 104.742 126.867Z" fill="#FE8544"/>
<path d="M104.742 104.098C106.188 104.098 107.359 102.926 107.359 101.48C107.359 100.035 106.188 98.8633 104.742 98.8633C103.297 98.8633 102.125 100.035 102.125 101.48C102.125 102.926 103.297 104.098 104.742 104.098Z" fill="#FE8544"/>
<defs>
<filter id="filter0_d_1_114" x="0" y="0" width="222" height="222" filterUnits="userSpaceOnUse" color-interpolation-filters="sRGB">
<feFlood flood-opacity="0" result="BackgroundImageFix"/>
<feColorMatrix in="SourceAlpha" type="matrix" values="0 0 0 0 0 0 0 0 0 0 0 0 0 0 0 0 0 0 127 0" result="hardAlpha"/>
<feOffset dy="4"/>
<feGaussianBlur stdDeviation="17"/>
<feColorMatrix type="matrix" values="0 0 0 0 0 0 0 0 0 0 0 0 0 0 0 0 0 0 0.15 0"/>
<feBlend mode="normal" in2="BackgroundImageFix" result="effect1_dropShadow_1_114"/>
<feBlend mode="normal" in="SourceGraphic" in2="effect1_dropShadow_1_114" result="shape"/>
</filter>
</defs>
</svg>
