<svg width="222" height="222" viewBox="0 0 222 222" fill="none" xmlns="http://www.w3.org/2000/svg">
<g filter="url(#filter0_d_1_91)">
<circle cx="111" cy="107" r="77" fill="white"/>
</g>
<path d="M106.062 92.5719L100.037 98.1513L96.5596 94.8627C96.2199 94.5466 95.7618 94.3703 95.2852 94.3721C94.8086 94.374 94.352 94.5538 94.015 94.8725C93.678 95.1912 93.4878 95.6229 93.4859 96.0735C93.4839 96.5242 93.6704 96.9574 94.0046 97.2786L98.7472 101.763C99.0837 102.081 99.5394 102.261 100.015 102.264C100.491 102.266 100.949 102.091 101.289 101.776L108.591 95.0133C108.761 94.8563 108.896 94.6693 108.989 94.4629C109.082 94.2565 109.131 94.0348 109.134 93.8104C109.136 93.5861 109.092 93.3634 109.003 93.1552C108.915 92.9471 108.784 92.7574 108.618 92.5971C108.452 92.4368 108.254 92.309 108.036 92.221C107.817 92.1329 107.583 92.0864 107.346 92.0841C107.108 92.0817 106.873 92.1236 106.653 92.2073C106.432 92.291 106.232 92.4149 106.062 92.5719Z" fill="#FE8544"/>
<path d="M148.478 121.651L127.999 97.7642C127.734 97.4565 127.365 97.2455 126.954 97.1674C126.069 91.0268 122.861 85.3974 117.923 81.3218C112.986 77.2461 106.654 75.0002 100.1 75C85.1572 75 73 86.4957 73 100.626C73 114.756 85.1572 126.251 100.1 126.251C104.903 126.258 109.62 125.052 113.765 122.758L126.958 138.147C127.26 138.499 127.697 138.723 128.174 138.77C128.65 138.817 129.127 138.684 129.499 138.398L148.212 124.054C148.584 123.768 148.821 123.355 148.871 122.904C148.921 122.454 148.779 122.003 148.478 121.651ZM100.1 122.835C87.1495 122.835 76.6134 112.872 76.6134 100.626C76.6134 88.3796 87.1495 78.4168 100.1 78.4168C111.686 78.4168 121.522 86.5089 123.299 97.151L119.638 97.1734C118.785 92.863 116.365 88.9701 112.797 86.1688C109.229 83.3674 104.738 81.8339 100.1 81.8335C89.142 81.8335 80.2268 90.2637 80.2268 100.626C80.2268 110.988 89.142 119.418 100.1 119.418C103.243 119.419 106.341 118.715 109.139 117.362L111.457 120.067C107.982 121.887 104.073 122.84 100.1 122.835ZM106.117 112.819C106.059 113.07 106.062 113.329 106.124 113.578C106.187 113.828 106.308 114.061 106.478 114.26L106.801 114.636C105.25 115.299 103.599 115.728 101.907 115.905V113.154C101.907 112.701 101.717 112.266 101.378 111.946C101.039 111.625 100.579 111.446 100.1 111.446C99.6212 111.446 99.1616 111.625 98.8228 111.946C98.484 112.266 98.2936 112.701 98.2936 113.154V115.906C94.6301 115.513 91.2158 113.957 88.6087 111.492C86.0017 109.027 84.3561 105.798 83.941 102.334H86.8513C87.3304 102.334 87.79 102.154 88.1288 101.834C88.4676 101.513 88.658 101.079 88.658 100.626C88.658 100.173 88.4676 99.7381 88.1288 99.4177C87.79 99.0974 87.3304 98.9174 86.8513 98.9174H83.941C84.3561 95.4532 86.0017 92.2246 88.6087 89.7594C91.2158 87.2942 94.6301 85.7382 98.2936 85.3457V88.0976C98.2936 88.5507 98.484 88.9852 98.8228 89.3056C99.1616 89.626 99.6212 89.806 100.1 89.806C100.579 89.806 101.039 89.626 101.378 89.3056C101.717 88.9852 101.907 88.5507 101.907 88.0976V85.3441C105.264 85.6874 108.422 87.0146 110.942 89.1397C113.461 91.2649 115.215 94.0818 115.957 97.196L111.159 97.2254C110.748 97.2279 110.351 97.3624 110.033 97.6067C109.714 97.851 109.493 98.1906 109.405 98.5696L106.117 112.819ZM128.627 134.668L109.832 112.746L112.627 100.633L125.738 100.553L144.533 122.476L128.627 134.668Z" fill="#FE8544"/>
<path d="M123.626 110.646L123.246 110.203C122.945 109.851 122.507 109.627 122.031 109.58C121.554 109.533 121.077 109.667 120.705 109.952C120.333 110.237 120.096 110.651 120.046 111.101C119.996 111.552 120.138 112.003 120.44 112.355L120.831 112.812C119.822 113.728 119.226 114.976 119.168 116.297C119.11 117.618 119.594 118.909 120.519 119.9C121.444 120.892 122.738 121.507 124.132 121.617C125.525 121.727 126.909 121.323 127.995 120.491L129.984 118.967C130.168 118.825 130.38 118.72 130.608 118.656C130.835 118.592 131.074 118.571 131.31 118.595C131.546 118.618 131.775 118.685 131.984 118.792C132.192 118.899 132.377 119.044 132.526 119.219L132.62 119.329C132.921 119.681 133.063 120.132 133.013 120.582C132.963 121.033 132.726 121.446 132.355 121.732L129.406 123.992C129.352 124.034 129.289 124.065 129.221 124.083C129.154 124.102 129.083 124.108 129.014 124.1C128.944 124.093 128.877 124.072 128.815 124.039C128.754 124.007 128.7 123.963 128.657 123.911L128.561 123.794C128.416 123.616 128.234 123.466 128.027 123.354C127.82 123.241 127.592 123.169 127.355 123.141C127.119 123.112 126.879 123.128 126.649 123.188C126.419 123.248 126.204 123.351 126.016 123.489C125.828 123.628 125.671 123.801 125.554 123.998C125.437 124.194 125.362 124.411 125.334 124.635C125.306 124.859 125.325 125.086 125.39 125.303C125.456 125.519 125.566 125.722 125.714 125.899L125.81 126.015C126.147 126.426 126.569 126.769 127.049 127.023C127.529 127.278 128.059 127.438 128.606 127.495C128.764 127.512 128.924 127.521 129.083 127.521C130.03 127.522 130.948 127.213 131.682 126.646L132.291 126.179L132.67 126.622C132.973 126.972 133.409 127.195 133.885 127.241C134.361 127.287 134.837 127.154 135.208 126.869C135.579 126.584 135.816 126.172 135.867 125.722C135.917 125.272 135.777 124.822 135.477 124.47L135.076 124.003C136.011 123.104 136.563 121.912 136.627 120.653C136.692 119.394 136.265 118.157 135.427 117.177L135.332 117.067C134.884 116.544 134.331 116.11 133.706 115.789C133.08 115.468 132.394 115.267 131.686 115.197C130.978 115.127 130.262 115.19 129.58 115.381C128.898 115.573 128.262 115.889 127.709 116.313L125.72 117.837C125.348 118.123 124.871 118.256 124.395 118.209C123.918 118.162 123.481 117.938 123.179 117.586C122.878 117.234 122.736 116.783 122.786 116.332C122.836 115.882 123.073 115.468 123.445 115.183L124.497 114.377H124.498L126.346 112.96C126.401 112.918 126.465 112.886 126.534 112.868C126.602 112.849 126.674 112.844 126.745 112.852C126.815 112.861 126.884 112.883 126.945 112.917C127.007 112.951 127.06 112.996 127.103 113.05C127.388 113.414 127.815 113.656 128.289 113.723C128.763 113.789 129.245 113.675 129.63 113.405C130.015 113.135 130.271 112.731 130.341 112.283C130.411 111.835 130.29 111.379 130.005 111.015C129.672 110.59 129.252 110.234 128.769 109.967C128.287 109.7 127.752 109.529 127.198 109.463C126.643 109.396 126.08 109.437 125.543 109.582C125.006 109.727 124.505 109.973 124.071 110.306L123.626 110.646Z" fill="#FE8544"/>
<path d="M119.4 105.821C119.175 105.558 118.873 105.365 118.532 105.265C118.19 105.165 117.825 105.162 117.483 105.259C117.14 105.355 116.836 105.545 116.607 105.805C116.379 106.065 116.237 106.383 116.2 106.719C116.163 107.055 116.232 107.394 116.398 107.693C116.565 107.992 116.822 108.237 117.136 108.398C117.45 108.559 117.807 108.629 118.163 108.597C118.519 108.566 118.857 108.436 119.135 108.223C119.507 107.938 119.744 107.525 119.794 107.074C119.844 106.623 119.702 106.173 119.4 105.821Z" fill="#FE8544"/>
<defs>
<filter id="filter0_d_1_91" x="0" y="0" width="222" height="222" filterUnits="userSpaceOnUse" color-interpolation-filters="sRGB">
<feFlood flood-opacity="0" result="BackgroundImageFix"/>
<feColorMatrix in="SourceAlpha" type="matrix" values="0 0 0 0 0 0 0 0 0 0 0 0 0 0 0 0 0 0 127 0" result="hardAlpha"/>
<feOffset dy="4"/>
<feGaussianBlur stdDeviation="17"/>
<feColorMatrix type="matrix" values="0 0 0 0 0 0 0 0 0 0 0 0 0 0 0 0 0 0 0.15 0"/>
<feBlend mode="normal" in2="BackgroundImageFix" result="effect1_dropShadow_1_91"/>
<feBlend mode="normal" in="SourceGraphic" in2="effect1_dropShadow_1_91" result="shape"/>
</filter>
</defs>
</svg>
