<svg width="13" height="13" viewBox="0 0 13 13" fill="none" xmlns="http://www.w3.org/2000/svg">
<path d="M9.12723 0H3.87277C1.73732 0 0 1.73732 0 3.87277V9.12723C0 11.2627 1.73732 13 3.87277 13H9.12723C11.2627 13 13 11.2627 13 9.12723V3.87277C13 1.73732 11.2627 0 9.12723 0ZM11.6922 9.12723C11.6922 10.5438 10.5438 11.6922 9.12723 11.6922H3.87277C2.45619 11.6922 1.3078 10.5438 1.3078 9.12723V3.87277C1.3078 2.45616 2.45619 1.3078 3.87277 1.3078H9.12723C10.5438 1.3078 11.6922 2.45616 11.6922 3.87277V9.12723Z" fill="white"/>
<path d="M6.5 3C4.5701 3 3 4.5701 3 6.49999C3 8.42987 4.5701 10 6.5 10C8.4299 10 10 8.4299 10 6.49999C10 4.57008 8.4299 3 6.5 3ZM6.5 8.63865C5.31886 8.63865 4.36137 7.68116 4.36137 6.50001C4.36137 5.31887 5.31888 4.36138 6.5 4.36138C7.68114 4.36138 8.63863 5.31887 8.63863 6.50001C8.63863 7.68113 7.68112 8.63865 6.5 8.63865Z" fill="white"/>
</svg>
